<svg aria-hidden="true" style="position:absolute;width:0;height:0;overflow:hidden" xmlns="http://www.w3.org/2000/svg">
  <defs>
    <symbol id="icon-basket" viewBox="0 0 32 32">
      <path d="M4.905 3.765H0V0h8.271l.845 7.529h21.002v11.178L7.096 23.283 4.906 3.764zM29.176 32a2.824 2.824 0 1 1 0-5.648 2.824 2.824 0 0 1 0 5.648zm-18.823 0a2.824 2.824 0 1 1 0-5.648 2.824 2.824 0 0 1 0 5.648z"/>
    </symbol>
    <symbol id="icon-instagram" viewBox="0 0 32 32">
      <path d="M19.063 16a3.063 3.063 0 1 1-6.126 0 3.063 3.063 0 0 1 6.126 0z"/>
      <path d="M23.162 10.582a2.84 2.84 0 0 0-.687-1.056 2.84 2.84 0 0 0-1.056-.687c-.324-.126-.81-.275-1.706-.316-.969-.044-1.26-.054-3.713-.054s-2.744.009-3.713.053c-.896.041-1.382.191-1.706.316a2.84 2.84 0 0 0-1.056.687c-.305.296-.54.657-.688 1.056-.126.324-.275.81-.316 1.706-.044.969-.054 1.259-.054 3.713s.01 2.744.054 3.713c.041.896.19 1.382.316 1.706.147.399.382.76.687 1.056.296.305.657.54 1.056.687.324.126.81.276 1.706.316.969.044 1.259.053 3.712.053s2.744-.009 3.713-.053c.896-.041 1.382-.19 1.706-.316a3.042 3.042 0 0 0 1.744-1.744c.126-.324.275-.81.316-1.706.044-.969.053-1.26.053-3.713s-.009-2.744-.053-3.713c-.041-.896-.19-1.382-.316-1.706zM16 20.718a4.718 4.718 0 1 1 0-9.435 4.718 4.718 0 0 1 0 9.435zm4.904-8.52a1.103 1.103 0 1 1 0-2.206 1.103 1.103 0 0 1 0 2.206z"/>
      <path d="M16 0C7.165 0 0 7.165 0 16s7.165 16 16 16 16-7.165 16-16S24.835 0 16 0zm9.132 19.788c-.044.978-.2 1.646-.427 2.23a4.697 4.697 0 0 1-2.687 2.687c-.584.227-1.252.382-2.23.427-.98.045-1.293.055-3.788.055s-2.808-.011-3.788-.055c-.978-.045-1.646-.2-2.23-.427a4.5 4.5 0 0 1-1.627-1.06 4.513 4.513 0 0 1-1.06-1.627c-.227-.584-.383-1.252-.427-2.23-.045-.98-.056-1.293-.056-3.788s.011-2.808.055-3.788c.044-.978.2-1.646.427-2.23a4.513 4.513 0 0 1 1.06-1.627 4.5 4.5 0 0 1 1.627-1.06c.585-.227 1.252-.382 2.23-.427.98-.045 1.293-.055 3.788-.055s2.808.011 3.788.056c.978.044 1.646.2 2.23.427a4.513 4.513 0 0 1 1.627 1.06 4.513 4.513 0 0 1 1.06 1.627c.227.585.383 1.252.427 2.23.045.98.055 1.293.055 3.788s-.011 2.808-.055 3.788z"/>
    </symbol>
    <symbol id="icon-linkedin" viewBox="0 0 32 32">
      <path d="M18.916 13.726c-1.37 0-1.981.753-2.323 1.281v-1.098h-2.579c.033.727 0 7.76 0 7.76h2.579v-4.335c0-.231.015-.464.084-.63.187-.464.611-.944 1.324-.944.933 0 1.306.711 1.306 1.756v4.152h2.58v-4.45c-.001-2.382-1.274-3.491-2.971-3.491zm-2.326 1.308h-.016c.005-.009.013-.017.016-.026v.026zM12.584 13.909h-2.579v7.76h2.579v-7.76z"/>
      <path d="M16 0C7.178 0 0 7.178 0 16s7.178 16 16 16 16-7.178 16-16S24.823 0 16 0zm8.485 23.237c0 .681-.565 1.231-1.263 1.231H8.669c-.696 0-1.261-.55-1.261-1.231V8.514c0-.68.565-1.231 1.261-1.231h14.553c.697 0 1.263.552 1.263 1.231v14.723z"/>
      <path d="M11.311 10.168c-.882 0-1.459.579-1.459 1.341 0 .744.56 1.341 1.425 1.341h.017c.9 0 1.46-.596 1.46-1.341-.017-.761-.559-1.341-1.442-1.341z"/>
    </symbol>
    <symbol id="icon-logo" viewBox="0 0 150 32">
      <path d="M0 .192h18.862v4.431H5.149v9.039H18.33v4.298H5.149v13.425H.001V.192zM22.223 11.092h4.882v20.293h-4.882V11.092zm-.222-9.748h5.326v6.203h-5.326V1.344zM34.634 15.079h-4.438v-3.988h4.438V5.685l4.882-1.063v6.469h5.237v3.988h-5.237v16.305h-4.882V15.079zM60.347 10.604c2.278 0 4.054.635 5.326 1.905 1.302 1.241 1.953 3.116 1.953 5.627v13.248h-4.837V19.066c0-1.477-.385-2.585-1.154-3.323s-1.834-1.108-3.195-1.108c-1.302 0-2.441.34-3.417 1.019s-1.701 1.61-2.175 2.791v12.938h-4.882V11.09h4.882v3.19a8.17 8.17 0 0 1 3.151-2.703c1.272-.65 2.722-.975 4.349-.975zM90.477 19.687c0 .857-.104 1.92-.311 3.19H75.875c.533 3.338 2.722 5.007 6.568 5.007 2.13 0 4.142-.532 6.036-1.595v4.076c-2.189 1.004-4.379 1.506-6.568 1.506s-4.113-.443-5.769-1.329c-1.657-.886-2.944-2.127-3.861-3.722-.888-1.625-1.332-3.5-1.332-5.627 0-2.097.414-3.944 1.243-5.539.858-1.625 2.056-2.865 3.595-3.722 1.568-.886 3.373-1.329 5.414-1.329 2.84 0 5.089.827 6.746 2.481 1.686 1.625 2.53 3.825 2.53 6.602zm-9.187-5.095c-1.568 0-2.825.443-3.772 1.329-.917.857-1.479 2.112-1.686 3.766h10.429c0-1.625-.429-2.88-1.287-3.766s-2.086-1.329-3.684-1.329zM99.762 28.062c1.036 0 1.849-.207 2.441-.62.592-.443.888-1.049.888-1.817 0-.679-.296-1.226-.888-1.639-.562-.443-1.687-.96-3.373-1.551-2.189-.768-3.772-1.61-4.749-2.525s-1.465-2.053-1.465-3.412c0-1.743.74-3.161 2.219-4.254s3.417-1.639 5.814-1.639c2.367 0 4.704.576 7.012 1.728v4.076a15.264 15.264 0 0 0-3.417-1.462c-1.213-.384-2.396-.576-3.55-.576-.976 0-1.746.177-2.308.532-.532.325-.799.783-.799 1.374 0 .532.237.975.71 1.329.503.354 1.465.768 2.885 1.241 1.775.62 3.151 1.24 4.127 1.861 1.006.591 1.716 1.256 2.13 1.994s.621 1.625.621 2.658c0 2.068-.725 3.678-2.175 4.83-1.45 1.122-3.476 1.684-6.08 1.684-2.219 0-4.556-.679-7.012-2.038v-4.032c1.095.679 2.248 1.226 3.462 1.639s2.382.62 3.506.62zM117.401 28.062c1.036 0 1.849-.207 2.441-.62.592-.443.888-1.049.888-1.817 0-.679-.296-1.226-.888-1.639-.562-.443-1.686-.96-3.373-1.551-2.189-.768-3.772-1.61-4.749-2.525s-1.464-2.053-1.464-3.412c0-1.743.74-3.161 2.219-4.254s3.417-1.639 5.814-1.639c2.367 0 4.704.576 7.012 1.728v4.076a15.264 15.264 0 0 0-3.417-1.462c-1.213-.384-2.397-.576-3.55-.576-.976 0-1.746.177-2.308.532-.533.325-.799.783-.799 1.374 0 .532.237.975.71 1.329.503.354 1.465.768 2.885 1.241 1.775.62 3.151 1.24 4.127 1.861 1.006.591 1.716 1.256 2.13 1.994s.621 1.625.621 2.658c0 2.068-.725 3.678-2.175 4.83-1.45 1.122-3.476 1.684-6.08 1.684-2.219 0-4.556-.679-7.012-2.038v-4.032c1.095.679 2.249 1.226 3.462 1.639s2.382.62 3.506.62zM139.168 31.872c-2.219 0-4.172-.443-5.858-1.329-1.687-.916-2.988-2.171-3.905-3.766s-1.376-3.441-1.376-5.539c0-2.097.459-3.943 1.376-5.538s2.219-2.836 3.905-3.722c1.686-.916 3.639-1.374 5.858-1.374s4.157.458 5.814 1.374c1.686.886 2.988 2.127 3.905 3.722s1.376 3.441 1.376 5.538c0 2.097-.459 3.944-1.376 5.539s-2.219 2.85-3.905 3.766c-1.657.886-3.595 1.329-5.814 1.329zm0-3.988c1.775 0 3.24-.606 4.394-1.817s1.731-2.821 1.731-4.83c0-2.008-.577-3.618-1.731-4.829s-2.618-1.817-4.394-1.817c-1.775 0-3.24.606-4.394 1.817s-1.731 2.821-1.731 4.829c0 2.009.577 3.619 1.731 4.83s2.618 1.817 4.394 1.817zM48.232 0h101.089v4.308H48.232V0z"/>
    </symbol>
    <symbol id="icon-twitter" viewBox="0 0 32 32">
      <path d="M16 0C7.178 0 0 7.178 0 16s7.178 16 16 16 16-7.178 16-16S24.823 0 16 0zm7.138 12.338c.007.159.011.318.011.478 0 4.867-3.703 10.476-10.479 10.476-2.08 0-4.016-.608-5.645-1.653a7.394 7.394 0 0 0 5.452-1.524 3.686 3.686 0 0 1-3.44-2.558 3.673 3.673 0 0 0 1.663-.062 3.684 3.684 0 0 1-2.953-3.657 3.672 3.672 0 0 0 1.667.46 3.68 3.68 0 0 1-1.638-3.065c0-.675.181-1.308.498-1.852a10.457 10.457 0 0 0 7.59 3.849 3.684 3.684 0 0 1 6.275-3.36 7.343 7.343 0 0 0 2.34-.894 3.698 3.698 0 0 1-1.622 2.038 7.326 7.326 0 0 0 2.115-.579 7.432 7.432 0 0 1-1.835 1.904z"/>
    </symbol>
    <symbol id="icon-youtube" viewBox="0 0 32 32">
      <path d="M14.007 18.998 19.212 16l-5.205-2.998v5.995z"/>
      <path d="M16 0C7.165 0 0 7.165 0 16s7.165 16 16 16 16-7.165 16-16S24.835 0 16 0zm9.998 16.016s0 3.245-.412 4.81a2.504 2.504 0 0 1-1.762 1.762C22.259 23 16.001 23 16.001 23s-6.242 0-7.823-.428a2.504 2.504 0 0 1-1.762-1.762c-.412-1.548-.412-4.809-.412-4.809s0-3.245.412-4.809a2.557 2.557 0 0 1 1.762-1.779c1.565-.412 7.823-.412 7.823-.412s6.259 0 7.823.428c.856.23 1.532.906 1.762 1.762.428 1.565.412 4.826.412 4.826z"/>
    </symbol>
    <symbol id="icon-head-menu" viewBox="0 0 32 32">
      <path d="M6.4 11.734V9.6h19.2v2.134H6.4zm0 5.332h19.2v-2.133H6.4v2.133zm0 5.334h19.2v-2.134H6.4V22.4z"/>
    </symbol>
    <symbol id="icon-head-menu-close" viewBox="0 0 32 32">
      <path d="M23.734 10.304 22.23 8.8l-5.963 5.962L10.305 8.8l-1.504 1.504 5.962 5.962-5.962 5.963 1.504 1.504 5.962-5.963 5.963 5.963 1.504-1.504-5.963-5.963 5.963-5.962z"/>
    </symbol>
  </defs>
</svg>
